<svg width="450" height="125" viewBox="0 0 450 125" fill="none" xmlns="http://www.w3.org/2000/svg">
<path d="M439.306 70.1684C441.164 72.0261 442.093 74.6628 442.093 78.0785C442.093 80.835 441.343 83.3519 439.845 85.6291C438.407 87.9062 436.22 89.7339 433.284 91.1122C430.347 92.4306 426.782 93.0897 422.587 93.0897C418.452 93.0897 414.917 92.4306 411.98 91.1122C409.044 89.7339 406.827 87.9062 405.329 85.6291C403.83 83.3519 403.081 80.865 403.081 78.1684H412.969C413.029 80.1459 413.898 81.644 415.576 82.6628C417.314 83.6815 419.681 84.1909 422.677 84.1909C424.175 84.1909 425.583 84.0111 426.902 83.6515C428.22 83.2321 429.299 82.6028 430.137 81.7639C430.976 80.865 431.396 79.7564 431.396 78.438C431.396 77.1197 430.946 76.101 430.048 75.3819C429.149 74.6628 428.01 74.1534 426.632 73.8538C425.314 73.5542 423.456 73.2545 421.059 72.9549C417.523 72.5953 414.587 72.1459 412.25 71.6066C409.973 71.0073 407.995 69.8688 406.317 68.1909C404.699 66.513 403.89 64.086 403.89 60.91C403.89 58.3332 404.579 56.0261 405.958 53.9886C407.396 51.8912 409.523 50.2133 412.34 48.9549C415.156 47.6965 418.572 47.0673 422.587 47.0673C426.602 47.0673 429.988 47.6965 432.744 48.9549C435.561 50.2133 437.688 51.8912 439.126 53.9886C440.564 56.0261 441.284 58.3332 441.284 60.91V61.6291H431.306V60.91C431.306 59.3519 430.497 58.1534 428.879 57.3145C427.321 56.4156 425.284 55.9661 422.767 55.9661C420.49 55.9661 418.542 56.3856 416.924 57.2246C415.306 58.0635 414.497 59.262 414.497 60.8201C414.497 61.7189 414.887 62.438 415.666 62.9774C416.445 63.5167 417.463 63.9062 418.722 64.1459C420.04 64.3856 421.598 64.6253 423.396 64.865C427.171 65.2845 430.287 65.8238 432.744 66.483C435.261 67.0822 437.448 68.3107 439.306 70.1684Z" fill="#030F0F"/>
<path d="M399.542 70.1684C401.399 72.0261 402.328 74.6628 402.328 78.0785C402.328 80.835 401.579 83.3519 400.081 85.6291C398.643 87.9062 396.455 89.7339 393.519 91.1122C390.583 92.4306 387.017 93.0897 382.823 93.0897C378.688 93.0897 375.152 92.4306 372.216 91.1122C369.279 89.7339 367.062 87.9062 365.564 85.6291C364.066 83.3519 363.317 80.865 363.317 78.1684H373.205C373.264 80.1459 374.133 81.644 375.811 82.6628C377.549 83.6815 379.916 84.1909 382.912 84.1909C384.411 84.1909 385.819 84.0111 387.137 83.6515C388.455 83.2321 389.534 82.6028 390.373 81.7639C391.212 80.865 391.631 79.7564 391.631 78.438C391.631 77.1197 391.182 76.101 390.283 75.3819C389.384 74.6628 388.246 74.1534 386.867 73.8538C385.549 73.5542 383.691 73.2545 381.294 72.9549C377.759 72.5953 374.823 72.1459 372.485 71.6066C370.208 71.0073 368.231 69.8688 366.553 68.1909C364.935 66.513 364.126 64.086 364.126 60.91C364.126 58.3332 364.815 56.0261 366.193 53.9886C367.631 51.8912 369.759 50.2133 372.575 48.9549C375.392 47.6965 378.808 47.0673 382.823 47.0673C386.837 47.0673 390.223 47.6965 392.98 48.9549C395.796 50.2133 397.924 51.8912 399.362 53.9886C400.8 56.0261 401.519 58.3332 401.519 60.91V61.6291H391.542V60.91C391.542 59.3519 390.733 58.1534 389.115 57.3145C387.557 56.4156 385.519 55.9661 383.002 55.9661C380.725 55.9661 378.778 56.3856 377.16 57.2246C375.542 58.0635 374.733 59.262 374.733 60.8201C374.733 61.7189 375.122 62.438 375.901 62.9774C376.68 63.5167 377.699 63.9062 378.957 64.1459C380.276 64.3856 381.834 64.6253 383.632 64.865C387.407 65.2845 390.523 65.8238 392.98 66.483C395.497 67.0822 397.684 68.3107 399.542 70.1684Z" fill="#030F0F"/>
<path d="M340.15 55.9661C337.873 55.9661 335.925 56.4755 334.307 57.4942C332.749 58.453 331.491 59.7115 330.532 61.2695C329.633 62.7676 329.034 64.3557 328.734 66.0336L351.566 66.1234C351.326 64.5055 350.757 62.9474 349.858 61.4493C348.959 59.8912 347.701 58.6028 346.083 57.5841C344.465 56.5055 342.487 55.9661 340.15 55.9661ZM328.465 72.5055C328.644 74.2433 329.124 76.0111 329.903 77.8088C330.682 79.5467 331.91 81.0448 333.588 82.3032C335.326 83.5616 337.513 84.1909 340.15 84.1909C342.907 84.1909 345.124 83.5616 346.802 82.3032C348.48 81.0448 349.738 79.3669 350.577 77.2695H361.184C360.165 81.2845 358.038 84.9399 354.802 88.2358C351.566 91.4718 346.712 93.0897 340.24 93.0897C335.266 93.0897 331.131 91.9811 327.835 89.7639C324.54 87.4867 322.113 84.6103 320.555 81.1347C319.056 77.5991 318.307 73.9137 318.307 70.0785C318.307 66.2433 319.056 62.5879 320.555 59.1122C322.113 55.5766 324.54 52.7002 327.835 50.483C331.131 48.2058 335.266 47.0673 340.24 47.0673C345.274 47.0673 349.468 48.2358 352.824 50.5729C356.18 52.85 358.607 55.9362 360.105 59.8313C361.663 63.6665 362.292 67.8912 361.993 72.5055H328.465Z" fill="#030F0F"/>
<path d="M314.046 29.0894V92.0107H303.17V29.0894H314.046Z" fill="#030F0F"/>
<path d="M277.037 55.9661C274.76 55.9661 272.812 56.4755 271.194 57.4942C269.636 58.453 268.378 59.7115 267.419 61.2695C266.52 62.7676 265.921 64.3557 265.621 66.0336L288.453 66.1234C288.213 64.5055 287.644 62.9474 286.745 61.4493C285.846 59.8912 284.587 58.6028 282.969 57.5841C281.351 56.5055 279.374 55.9661 277.037 55.9661ZM265.351 72.5055C265.531 74.2433 266.011 76.0111 266.79 77.8088C267.569 79.5467 268.797 81.0448 270.475 82.3032C272.213 83.5616 274.4 84.1909 277.037 84.1909C279.793 84.1909 282.011 83.5616 283.688 82.3032C285.366 81.0448 286.625 79.3669 287.464 77.2695H298.07C297.052 81.2845 294.924 84.9399 291.688 88.2358C288.453 91.4718 283.599 93.0897 277.127 93.0897C272.153 93.0897 268.018 91.9811 264.722 89.7639C261.426 87.4867 258.999 84.6103 257.441 81.1347C255.943 77.5991 255.194 73.9137 255.194 70.0785C255.194 66.2433 255.943 62.5879 257.441 59.1122C258.999 55.5766 261.426 52.7002 264.722 50.483C268.018 48.2058 272.153 47.0673 277.127 47.0673C282.16 47.0673 286.355 48.2358 289.711 50.5729C293.067 52.85 295.494 55.9362 296.992 59.8313C298.55 63.6665 299.179 67.8912 298.879 72.5055H265.351Z" fill="#030F0F"/>
<path d="M227.611 86.7976C223.716 86.7976 220.15 85.9886 216.914 84.3706C213.738 82.6927 211.221 80.3556 209.364 77.3594C207.566 74.3032 206.667 70.8575 206.667 67.0223C206.667 63.0673 207.506 59.5916 209.184 56.5953C210.862 53.5392 213.199 51.2021 216.195 49.5841C219.251 47.9062 222.727 47.0673 226.622 47.0673C229.438 47.0673 231.985 47.6365 234.262 48.7751C236.6 49.9137 238.457 51.4118 239.836 53.2695C241.274 55.1272 242.173 57.1047 242.532 59.2021C242.652 59.6815 242.922 60.1309 243.341 60.5504C243.761 60.9699 244.39 61.5092 245.229 62.1684C246.367 63.1272 247.176 63.9661 247.656 64.6852C248.195 65.3444 248.465 66.1234 248.465 67.0223C248.465 70.9174 247.596 74.3631 245.858 77.3594C244.18 80.3556 241.753 82.6927 238.577 84.3706C235.401 85.9886 231.746 86.7976 227.611 86.7976ZM227.611 77.8987C229.888 77.8987 231.925 77.4493 233.723 76.5504C235.581 75.5916 237.019 74.3032 238.038 72.6852C239.056 71.0073 239.566 69.1197 239.566 67.0223C239.566 64.865 239.056 62.9774 238.038 61.3594C237.019 59.6815 235.581 58.3931 233.723 57.4942C231.925 56.5354 229.888 56.056 227.611 56.056C225.274 56.056 223.206 56.5354 221.409 57.4942C219.611 58.3931 218.203 59.6815 217.184 61.3594C216.165 62.9774 215.656 64.865 215.656 67.0223C215.656 69.1197 216.165 71.0073 217.184 72.6852C218.203 74.3032 219.611 75.5916 221.409 76.5504C223.206 77.4493 225.274 77.8987 227.611 77.8987ZM228.51 110.168C231.266 110.168 233.723 109.929 235.88 109.449C238.038 108.97 239.746 108.281 241.004 107.382C242.262 106.543 242.892 105.554 242.892 104.416C242.892 103.277 242.262 102.258 241.004 101.359C239.746 100.52 238.008 99.8613 235.791 99.3819C233.573 98.9025 231.146 98.6628 228.51 98.6628C225.753 98.6628 223.296 98.9025 221.139 99.3819C218.982 99.8613 217.274 100.52 216.015 101.359C214.817 102.258 214.218 103.277 214.218 104.416C214.218 105.554 214.817 106.543 216.015 107.382C217.274 108.281 218.982 108.97 221.139 109.449C223.296 109.929 225.753 110.168 228.51 110.168ZM213.139 94.7077C211.101 94.7077 209.513 94.1983 208.375 93.1796C207.236 92.1609 206.667 90.7826 206.667 89.0448C206.667 87.4268 207.236 86.1384 208.375 85.1796C209.513 84.2208 211.101 83.7414 213.139 83.7414H213.948V82.1234L227.611 84.9998V86.7976H217.633C216.794 86.7976 216.105 86.9474 215.566 87.247C215.086 87.5467 214.847 88.056 214.847 88.7751C214.847 89.4343 215.086 89.9437 215.566 90.3032C216.105 90.6028 216.794 90.7527 217.633 90.7527H228.51C233.124 90.7527 237.259 91.3519 240.914 92.5504C244.63 93.7489 247.536 95.3669 249.633 97.4043C251.731 99.5017 252.779 101.839 252.779 104.416C252.779 106.992 251.731 109.329 249.633 111.427C247.536 113.524 244.63 115.142 240.914 116.281C237.259 117.479 233.154 118.078 228.6 118.078C223.925 118.078 219.731 117.539 216.015 116.461C212.36 115.442 209.483 114.004 207.386 112.146C205.289 110.348 204.24 108.281 204.24 105.944C204.24 103.906 204.839 102.168 206.038 100.73C207.296 99.3519 208.794 98.3032 210.532 97.5841C212.27 96.865 214.038 96.3856 215.836 96.1459H215.925V94.7077H213.139ZM243.97 59.2021C243.012 56.3856 242.532 53.8688 242.532 51.6515C242.532 50.6927 242.862 49.8837 243.521 49.2246C244.24 48.5055 245.109 48.1459 246.128 48.1459H255.296V58.0336H250.352C249.873 58.0336 249.424 58.2133 249.004 58.5729C248.644 58.8725 248.465 59.292 248.465 59.8313V67.0223L241.543 65.674L242.532 59.2021H243.97Z" fill="#030F0F"/>
<path d="M167.23 70.0781C167.23 74.0332 168.339 77.2092 170.556 79.6062C172.833 82.0032 175.74 83.2017 179.275 83.2017C182.811 83.2017 185.687 82.0032 187.904 79.6062C190.181 77.2092 191.32 74.0332 191.32 70.0781C191.32 66.1231 190.181 62.947 187.904 60.55C185.687 58.153 182.811 56.9545 179.275 56.9545C175.74 56.9545 172.833 58.153 170.556 60.55C168.339 62.947 167.23 66.1231 167.23 70.0781ZM156.354 70.0781C156.354 66.183 157.043 62.4976 158.421 59.0219C159.859 55.4864 162.047 52.61 164.983 50.3927C167.919 48.1755 171.605 47.0669 176.039 47.0669C180.054 47.0669 183.23 47.9358 185.567 49.6736C187.964 51.3515 189.882 53.5088 191.32 56.1455H192.848C191.829 52.8497 191.32 49.3141 191.32 45.5388V29.0894H202.107V92.0107H191.32V91.4714C191.32 90.2729 191.47 89.0145 191.769 87.6961C192.069 86.3777 192.429 85.1493 192.848 84.0107H191.32C191.14 84.2504 190.931 84.58 190.691 84.9995C189.372 87.3965 187.515 89.344 185.118 90.8422C182.721 92.3403 179.575 93.0894 175.68 93.0894C171.425 93.0894 167.829 91.9807 164.893 89.7635C162.017 87.5463 159.859 84.6998 158.421 81.2242C157.043 77.6886 156.354 73.9733 156.354 70.0781Z" fill="#030F0F"/>
<path d="M152.641 38.977H123.607V55.2467H149.674V64.7748H123.607V82.1231H152.641V92.0107H112.82V29.0894H152.641V38.977Z" fill="#030F0F"/>
<path fill-rule="evenodd" clip-rule="evenodd" d="M0.214642 1.57095C-0.125195 1.88564 -0.0361765 85.7143 0.304262 85.821C0.467564 85.872 2.90416 85.8767 5.7185 85.8313L10.8359 85.7491L10.7598 43.6398L10.6837 1.53085L5.55279 1.45482C2.73094 1.41304 0.328924 1.4654 0.214642 1.57095ZM24.0796 4.39262C20.5871 4.44665 19.0594 4.56974 18.8888 4.81036C18.6034 5.21306 18.6236 32.8656 18.9093 32.8514C19.0166 32.8458 19.7333 31.8747 20.5017 30.6931C21.9841 28.4142 24.3079 25.6203 24.7214 25.6203C24.8576 25.6203 24.9689 35.0821 24.9689 46.6464C24.9689 59.349 24.8588 67.6725 24.6907 67.6725C24.3235 67.6725 21.0451 63.6322 19.9589 61.8409C19.4888 61.0662 19.0308 60.4323 18.9409 60.432C18.8509 60.4318 18.7833 66.7917 18.7905 74.5652L18.8037 88.6986L24.1049 88.7747C28.973 88.8443 29.416 88.81 29.5251 88.3569C29.7865 87.2717 29.5702 4.70788 29.3056 4.51627C29.1534 4.40599 26.8016 4.35029 24.0796 4.39262ZM37.8072 7.41927C37.5705 7.63844 37.5185 17.5441 37.7543 17.5441C37.8391 17.5441 38.8851 17.2935 40.079 16.9871C42.6885 16.3173 43.6139 16.2811 43.6175 16.8479C43.619 17.0776 43.6223 30.6435 43.6248 46.9946C43.6287 72.3311 43.5667 76.7358 43.2058 76.8073C42.973 76.8533 41.6955 76.6341 40.3668 76.32C39.0382 76.0058 37.8698 75.7488 37.7708 75.7488C37.6719 75.7488 37.6268 79.3519 37.6707 83.7554L37.7504 91.762H43.0133H48.2763V49.5706V7.37916L43.1454 7.30314C40.3235 7.26136 37.9215 7.31372 37.8072 7.41927ZM56.3115 13.5508L56.3963 16.7983L58.8022 17.5474C61.5035 18.3888 63.8965 19.4534 65.7945 20.6585L67.0726 21.4697V46.6409V71.812L66.2456 72.3548C64.8429 73.2752 61.0773 74.9587 58.6798 75.7374L56.3963 76.4787V85.5127V94.547H61.6593H66.9222L67.0007 83.2285L67.0792 71.9098L69.1059 70.3168C71.5888 68.3651 74.3307 65.5538 75.7372 63.518C77.351 61.182 79.2902 57.196 80.0162 54.7227C80.8537 51.8698 81.1891 44.135 80.6068 41.1022C79.3543 34.5786 75.044 27.5403 69.8355 23.5138C68.7294 22.6586 67.6572 21.6864 67.453 21.353C67.195 20.9322 67.0801 19.1496 67.0771 15.525L67.0726 10.3033H61.6496H56.227L56.3115 13.5508Z" fill="#030F0F"/>
</svg>
