<svg width="450" height="125" viewBox="0 0 450 125" fill="none" xmlns="http://www.w3.org/2000/svg">
<path d="M439.306 70.1683C441.164 72.0259 442.093 74.6626 442.093 78.0784C442.093 80.8349 441.343 83.3518 439.845 85.6289C438.407 87.9061 436.22 89.7338 433.284 91.1121C430.347 92.4304 426.782 93.0896 422.587 93.0896C418.452 93.0896 414.917 92.4304 411.98 91.1121C409.044 89.7338 406.827 87.9061 405.329 85.6289C403.83 83.3518 403.081 80.8649 403.081 78.1683H412.969C413.029 80.1458 413.898 81.6439 415.576 82.6626C417.314 83.6814 419.681 84.1907 422.677 84.1907C424.175 84.1907 425.583 84.011 426.902 83.6514C428.22 83.2319 429.299 82.6027 430.137 81.7638C430.976 80.8649 431.396 79.7563 431.396 78.4379C431.396 77.1196 430.946 76.1008 430.048 75.3817C429.149 74.6626 428.01 74.1533 426.632 73.8537C425.314 73.554 423.456 73.2544 421.059 72.9548C417.523 72.5952 414.587 72.1458 412.25 71.6065C409.973 71.0072 407.995 69.8686 406.317 68.1907C404.699 66.5128 403.89 64.0859 403.89 60.9098C403.89 58.3331 404.579 56.0259 405.958 53.9885C407.396 51.8911 409.523 50.2132 412.34 48.9548C415.156 47.6964 418.572 47.0671 422.587 47.0671C426.602 47.0671 429.988 47.6964 432.744 48.9548C435.561 50.2132 437.688 51.8911 439.126 53.9885C440.564 56.0259 441.284 58.3331 441.284 60.9098V61.6289H431.306V60.9098C431.306 59.3518 430.497 58.1533 428.879 57.3143C427.321 56.4155 425.284 55.966 422.767 55.966C420.49 55.966 418.542 56.3855 416.924 57.2244C415.306 58.0634 414.497 59.2619 414.497 60.8199C414.497 61.7188 414.887 62.4379 415.666 62.9773C416.445 63.5166 417.463 63.9061 418.722 64.1458C420.04 64.3855 421.598 64.6252 423.396 64.8649C427.171 65.2844 430.287 65.8237 432.744 66.4829C435.261 67.0821 437.448 68.3106 439.306 70.1683Z" fill="#85D746"/>
<path d="M399.542 70.1683C401.399 72.0259 402.328 74.6626 402.328 78.0784C402.328 80.8349 401.579 83.3518 400.081 85.6289C398.643 87.9061 396.455 89.7338 393.519 91.1121C390.583 92.4304 387.017 93.0896 382.823 93.0896C378.688 93.0896 375.152 92.4304 372.216 91.1121C369.279 89.7338 367.062 87.9061 365.564 85.6289C364.066 83.3518 363.317 80.8649 363.317 78.1683H373.205C373.264 80.1458 374.133 81.6439 375.811 82.6626C377.549 83.6814 379.916 84.1907 382.912 84.1907C384.411 84.1907 385.819 84.011 387.137 83.6514C388.455 83.2319 389.534 82.6027 390.373 81.7638C391.212 80.8649 391.631 79.7563 391.631 78.4379C391.631 77.1196 391.182 76.1008 390.283 75.3817C389.384 74.6626 388.246 74.1533 386.867 73.8537C385.549 73.554 383.691 73.2544 381.294 72.9548C377.759 72.5952 374.823 72.1458 372.485 71.6065C370.208 71.0072 368.231 69.8686 366.553 68.1907C364.935 66.5128 364.126 64.0859 364.126 60.9098C364.126 58.3331 364.815 56.0259 366.193 53.9885C367.631 51.8911 369.759 50.2132 372.575 48.9548C375.392 47.6964 378.808 47.0671 382.823 47.0671C386.837 47.0671 390.223 47.6964 392.98 48.9548C395.796 50.2132 397.924 51.8911 399.362 53.9885C400.8 56.0259 401.519 58.3331 401.519 60.9098V61.6289H391.542V60.9098C391.542 59.3518 390.733 58.1533 389.115 57.3143C387.557 56.4155 385.519 55.966 383.002 55.966C380.725 55.966 378.778 56.3855 377.16 57.2244C375.542 58.0634 374.733 59.2619 374.733 60.8199C374.733 61.7188 375.122 62.4379 375.901 62.9773C376.68 63.5166 377.699 63.9061 378.957 64.1458C380.276 64.3855 381.834 64.6252 383.632 64.8649C387.407 65.2844 390.523 65.8237 392.98 66.4829C395.497 67.0821 397.684 68.3106 399.542 70.1683Z" fill="#85D746"/>
<path d="M340.15 55.966C337.873 55.966 335.925 56.4754 334.307 57.4941C332.749 58.4529 331.491 59.7113 330.532 61.2694C329.633 62.7675 329.034 64.3555 328.734 66.0334L351.566 66.1233C351.326 64.5053 350.757 62.9473 349.858 61.4492C348.959 59.8911 347.701 58.6027 346.083 57.584C344.465 56.5053 342.487 55.966 340.15 55.966ZM328.465 72.5053C328.644 74.2432 329.124 76.011 329.903 77.8087C330.682 79.5465 331.91 81.0447 333.588 82.3031C335.326 83.5615 337.513 84.1907 340.15 84.1907C342.907 84.1907 345.124 83.5615 346.802 82.3031C348.48 81.0447 349.738 79.3668 350.577 77.2694H361.184C360.165 81.2844 358.038 84.9398 354.802 88.2357C351.566 91.4716 346.712 93.0896 340.24 93.0896C335.266 93.0896 331.131 91.981 327.835 89.7638C324.54 87.4866 322.113 84.6102 320.555 81.1346C319.056 77.599 318.307 73.9136 318.307 70.0784C318.307 66.2432 319.056 62.5877 320.555 59.1121C322.113 55.5765 324.54 52.7001 327.835 50.4829C331.131 48.2057 335.266 47.0671 340.24 47.0671C345.274 47.0671 349.468 48.2357 352.824 50.5728C356.18 52.8499 358.607 55.9361 360.105 59.8312C361.663 63.6664 362.292 67.8911 361.993 72.5053H328.465Z" fill="#85D746"/>
<path d="M314.046 29.0894V92.0107H303.17V29.0894H314.046Z" fill="#85D746"/>
<path d="M277.037 55.966C274.76 55.966 272.812 56.4754 271.194 57.4941C269.636 58.4529 268.378 59.7113 267.419 61.2694C266.52 62.7675 265.921 64.3555 265.621 66.0334L288.453 66.1233C288.213 64.5053 287.644 62.9473 286.745 61.4492C285.846 59.8911 284.587 58.6027 282.969 57.584C281.351 56.5053 279.374 55.966 277.037 55.966ZM265.351 72.5053C265.531 74.2432 266.011 76.011 266.79 77.8087C267.569 79.5465 268.797 81.0447 270.475 82.3031C272.213 83.5615 274.4 84.1907 277.037 84.1907C279.793 84.1907 282.011 83.5615 283.688 82.3031C285.366 81.0447 286.625 79.3668 287.464 77.2694H298.07C297.052 81.2844 294.924 84.9398 291.688 88.2357C288.453 91.4716 283.599 93.0896 277.127 93.0896C272.153 93.0896 268.018 91.981 264.722 89.7638C261.426 87.4866 258.999 84.6102 257.441 81.1346C255.943 77.599 255.194 73.9136 255.194 70.0784C255.194 66.2432 255.943 62.5877 257.441 59.1121C258.999 55.5765 261.426 52.7001 264.722 50.4829C268.018 48.2057 272.153 47.0671 277.127 47.0671C282.16 47.0671 286.355 48.2357 289.711 50.5728C293.067 52.8499 295.494 55.9361 296.992 59.8312C298.55 63.6664 299.179 67.8911 298.879 72.5053H265.351Z" fill="#85D746"/>
<path d="M227.611 86.7975C223.716 86.7975 220.15 85.9885 216.914 84.3705C213.738 82.6926 211.221 80.3555 209.364 77.3593C207.566 74.3031 206.667 70.8574 206.667 67.0222C206.667 63.0671 207.506 59.5915 209.184 56.5952C210.862 53.539 213.199 51.202 216.195 49.584C219.251 47.9061 222.727 47.0671 226.622 47.0671C229.438 47.0671 231.985 47.6364 234.262 48.775C236.6 49.9136 238.457 51.4117 239.836 53.2694C241.274 55.1271 242.173 57.1046 242.532 59.202C242.652 59.6814 242.922 60.1308 243.341 60.5503C243.761 60.9698 244.39 61.5091 245.229 62.1683C246.367 63.1271 247.176 63.966 247.656 64.6851C248.195 65.3443 248.465 66.1233 248.465 67.0222C248.465 70.9173 247.596 74.363 245.858 77.3593C244.18 80.3555 241.753 82.6926 238.577 84.3705C235.401 85.9885 231.746 86.7975 227.611 86.7975ZM227.611 77.8986C229.888 77.8986 231.925 77.4492 233.723 76.5503C235.581 75.5915 237.019 74.3031 238.038 72.6851C239.056 71.0072 239.566 69.1196 239.566 67.0222C239.566 64.8649 239.056 62.9772 238.038 61.3593C237.019 59.6814 235.581 58.393 233.723 57.4941C231.925 56.5353 229.888 56.0559 227.611 56.0559C225.274 56.0559 223.206 56.5353 221.409 57.4941C219.611 58.393 218.203 59.6814 217.184 61.3593C216.165 62.9772 215.656 64.8649 215.656 67.0222C215.656 69.1196 216.165 71.0072 217.184 72.6851C218.203 74.3031 219.611 75.5915 221.409 76.5503C223.206 77.4492 225.274 77.8986 227.611 77.8986ZM228.51 110.168C231.266 110.168 233.723 109.929 235.88 109.449C238.038 108.97 239.746 108.281 241.004 107.382C242.262 106.543 242.892 105.554 242.892 104.415C242.892 103.277 242.262 102.258 241.004 101.359C239.746 100.52 238.008 99.8611 235.791 99.3817C233.573 98.9023 231.146 98.6626 228.51 98.6626C225.753 98.6626 223.296 98.9023 221.139 99.3817C218.982 99.8611 217.274 100.52 216.015 101.359C214.817 102.258 214.218 103.277 214.218 104.415C214.218 105.554 214.817 106.543 216.015 107.382C217.274 108.281 218.982 108.97 221.139 109.449C223.296 109.929 225.753 110.168 228.51 110.168ZM213.139 94.7076C211.101 94.7076 209.513 94.1982 208.375 93.1795C207.236 92.1608 206.667 90.7825 206.667 89.0447C206.667 87.4267 207.236 86.1383 208.375 85.1795C209.513 84.2207 211.101 83.7413 213.139 83.7413H213.948V82.1233L227.611 84.9997V86.7975H217.633C216.794 86.7975 216.105 86.9473 215.566 87.2469C215.086 87.5465 214.847 88.0559 214.847 88.775C214.847 89.4342 215.086 89.9435 215.566 90.3031C216.105 90.6027 216.794 90.7525 217.633 90.7525H228.51C233.124 90.7525 237.259 91.3518 240.914 92.5503C244.63 93.7488 247.536 95.3668 249.633 97.4042C251.731 99.5016 252.779 101.839 252.779 104.415C252.779 106.992 251.731 109.329 249.633 111.427C247.536 113.524 244.63 115.142 240.914 116.281C237.259 117.479 233.154 118.078 228.6 118.078C223.925 118.078 219.731 117.539 216.015 116.46C212.36 115.442 209.483 114.003 207.386 112.146C205.289 110.348 204.24 108.281 204.24 105.944C204.24 103.906 204.839 102.168 206.038 100.73C207.296 99.3518 208.794 98.3031 210.532 97.584C212.27 96.8649 214.038 96.3855 215.836 96.1458H215.925V94.7076H213.139ZM243.97 59.202C243.012 56.3855 242.532 53.8686 242.532 51.6514C242.532 50.6926 242.862 49.8836 243.521 49.2244C244.24 48.5053 245.109 48.1458 246.128 48.1458H255.296V58.0334H250.352C249.873 58.0334 249.424 58.2132 249.004 58.5728C248.644 58.8724 248.465 59.2919 248.465 59.8312V67.0222L241.543 65.6739L242.532 59.202H243.97Z" fill="#85D746"/>
<path d="M167.23 70.0781C167.23 74.0332 168.339 77.2092 170.556 79.6062C172.833 82.0032 175.74 83.2017 179.275 83.2017C182.811 83.2017 185.687 82.0032 187.904 79.6062C190.181 77.2092 191.32 74.0332 191.32 70.0781C191.32 66.1231 190.181 62.947 187.904 60.55C185.687 58.153 182.811 56.9545 179.275 56.9545C175.74 56.9545 172.833 58.153 170.556 60.55C168.339 62.947 167.23 66.1231 167.23 70.0781ZM156.354 70.0781C156.354 66.183 157.043 62.4976 158.421 59.0219C159.859 55.4864 162.047 52.61 164.983 50.3927C167.919 48.1755 171.605 47.0669 176.039 47.0669C180.054 47.0669 183.23 47.9358 185.567 49.6736C187.964 51.3515 189.882 53.5088 191.32 56.1455H192.848C191.829 52.8497 191.32 49.3141 191.32 45.5388V29.0894H202.107V92.0107H191.32V91.4714C191.32 90.2729 191.47 89.0145 191.769 87.6961C192.069 86.3777 192.429 85.1493 192.848 84.0107H191.32C191.14 84.2504 190.931 84.58 190.691 84.9995C189.372 87.3965 187.515 89.344 185.118 90.8422C182.721 92.3403 179.575 93.0894 175.68 93.0894C171.425 93.0894 167.829 91.9807 164.893 89.7635C162.017 87.5463 159.859 84.6998 158.421 81.2242C157.043 77.6886 156.354 73.9733 156.354 70.0781Z" fill="#85D746"/>
<path d="M152.641 38.977H123.607V55.2467H149.674V64.7748H123.607V82.1231H152.641V92.0107H112.82V29.0894H152.641V38.977Z" fill="#85D746"/>
<path fill-rule="evenodd" clip-rule="evenodd" d="M0.214642 1.57095C-0.125195 1.88564 -0.0361765 85.7143 0.304262 85.821C0.467564 85.872 2.90416 85.8767 5.7185 85.8313L10.8359 85.7491L10.7598 43.6398L10.6837 1.53085L5.55279 1.45482C2.73094 1.41304 0.328924 1.4654 0.214642 1.57095ZM24.0796 4.39262C20.5871 4.44665 19.0594 4.56974 18.8888 4.81036C18.6034 5.21306 18.6236 32.8656 18.9093 32.8514C19.0166 32.8458 19.7333 31.8747 20.5017 30.6931C21.9841 28.4142 24.3079 25.6203 24.7214 25.6203C24.8576 25.6203 24.9689 35.0821 24.9689 46.6464C24.9689 59.349 24.8588 67.6725 24.6907 67.6725C24.3235 67.6725 21.0451 63.6322 19.9589 61.8409C19.4888 61.0662 19.0308 60.4323 18.9409 60.432C18.8509 60.4318 18.7833 66.7917 18.7905 74.5652L18.8037 88.6986L24.1049 88.7747C28.973 88.8443 29.416 88.81 29.5251 88.3569C29.7865 87.2717 29.5702 4.70788 29.3056 4.51627C29.1534 4.40599 26.8016 4.35029 24.0796 4.39262ZM37.8072 7.41927C37.5705 7.63844 37.5185 17.5441 37.7543 17.5441C37.8391 17.5441 38.8851 17.2935 40.079 16.9871C42.6885 16.3173 43.6139 16.2811 43.6175 16.8479C43.619 17.0776 43.6223 30.6435 43.6248 46.9946C43.6287 72.3311 43.5667 76.7358 43.2058 76.8073C42.973 76.8533 41.6955 76.6341 40.3668 76.32C39.0382 76.0058 37.8698 75.7488 37.7708 75.7488C37.6719 75.7488 37.6268 79.3519 37.6707 83.7554L37.7504 91.762H43.0133H48.2763V49.5706V7.37916L43.1454 7.30314C40.3235 7.26136 37.9215 7.31372 37.8072 7.41927ZM56.3115 13.5508L56.3963 16.7983L58.8022 17.5474C61.5035 18.3888 63.8965 19.4534 65.7945 20.6585L67.0726 21.4697V46.6409V71.812L66.2456 72.3548C64.8429 73.2752 61.0773 74.9587 58.6798 75.7374L56.3963 76.4787V85.5127V94.547H61.6593H66.9222L67.0007 83.2285L67.0792 71.9098L69.1059 70.3168C71.5888 68.3651 74.3307 65.5538 75.7372 63.518C77.351 61.182 79.2902 57.196 80.0162 54.7227C80.8537 51.8698 81.1891 44.135 80.6068 41.1022C79.3543 34.5786 75.044 27.5403 69.8355 23.5138C68.7294 22.6586 67.6572 21.6864 67.453 21.353C67.195 20.9322 67.0801 19.1496 67.0771 15.525L67.0726 10.3033H61.6496H56.227L56.3115 13.5508Z" fill="#85D746"/>
</svg>
