<svg width="95" height="95" viewBox="0 0 95 95" fill="none" xmlns="http://www.w3.org/2000/svg">
<path fill-rule="evenodd" clip-rule="evenodd" d="M9.21464 1.57046C8.87481 1.88515 8.96382 85.7138 9.30426 85.8205C9.46756 85.8715 11.9042 85.8762 14.7185 85.8308L19.8359 85.7487L19.7598 43.6394L19.6837 1.53036L14.5528 1.45433C11.7309 1.41255 9.32892 1.46491 9.21464 1.57046ZM33.0796 4.39213C29.5871 4.44616 28.0594 4.56926 27.8888 4.80987C27.6034 5.21257 27.6236 32.8651 27.9093 32.8509C28.0166 32.8453 28.7333 31.8742 29.5017 30.6926C30.9841 28.4137 33.3079 25.6199 33.7214 25.6199C33.8576 25.6199 33.9689 35.0816 33.9689 46.646C33.9689 59.3485 33.8588 67.6721 33.6907 67.6721C33.3235 67.6721 30.0451 63.6317 28.9589 61.8404C28.4888 61.0657 28.0308 60.4318 27.9409 60.4316C27.8509 60.4313 27.7833 66.7912 27.7905 74.5647L27.8037 88.6982L33.1049 88.7742C37.973 88.8438 38.416 88.8096 38.5251 88.3564C38.7865 87.2712 38.5702 4.70739 38.3056 4.51578C38.1534 4.4055 35.8016 4.3498 33.0796 4.39213ZM46.8072 7.41878C46.5705 7.63795 46.5185 17.5436 46.7543 17.5436C46.8391 17.5436 47.8851 17.293 49.079 16.9866C51.6885 16.3169 52.6139 16.2807 52.6175 16.8474C52.619 17.0771 52.6223 30.643 52.6248 46.9941C52.6287 72.3307 52.5667 76.7353 52.2058 76.8068C51.973 76.8528 50.6955 76.6336 49.3668 76.3195C48.0382 76.0054 46.8698 75.7483 46.7708 75.7483C46.6719 75.7483 46.6268 79.3514 46.6707 83.7549L46.7504 91.7616H52.0133H57.2763V49.5701V7.37868L52.1454 7.30265C49.3235 7.26087 46.9215 7.31323 46.8072 7.41878ZM65.3115 13.5503L65.3963 16.7978L67.8022 17.547C70.5035 18.3883 72.8965 19.4529 74.7945 20.658L76.0726 21.4692V46.6404V71.8116L75.2456 72.3543C73.8429 73.2747 70.0773 74.9582 67.6798 75.7369L65.3963 76.4782V85.5122V94.5465H70.6593H75.9222L76.0007 83.228L76.0792 71.9093L78.1059 70.3163C80.5888 68.3647 83.3307 65.5533 84.7372 63.5175C86.351 61.1815 88.2902 57.1955 89.0162 54.7222C89.8537 51.8693 90.1891 44.1345 89.6068 41.1017C88.3543 34.5781 84.044 27.5398 78.8355 23.5134C77.7294 22.6581 76.6572 21.6859 76.453 21.3525C76.195 20.9317 76.0801 19.1491 76.0771 15.5245L76.0726 10.3028H70.6496H65.227L65.3115 13.5503Z" fill="#030F0F"/>
</svg>
