<svg width="450" height="125" viewBox="0 0 450 125" fill="none" xmlns="http://www.w3.org/2000/svg">
<path d="M439.305 70.1679C441.163 72.0256 442.091 74.6623 442.091 78.078C442.091 80.8346 441.342 83.3514 439.844 85.6286C438.406 87.9057 436.219 89.7334 433.282 91.1117C430.346 92.4301 426.781 93.0892 422.586 93.0892C418.451 93.0892 414.915 92.4301 411.979 91.1117C409.043 89.7334 406.826 87.9057 405.327 85.6286C403.829 83.3514 403.08 80.8645 403.08 78.1679H412.968C413.028 80.1454 413.897 81.6435 415.575 82.6623C417.312 83.681 419.679 84.1904 422.676 84.1904C424.174 84.1904 425.582 84.0106 426.9 83.651C428.219 83.2316 429.297 82.6024 430.136 81.7634C430.975 80.8645 431.395 79.7559 431.395 78.4376C431.395 77.1192 430.945 76.1005 430.047 75.3814C429.148 74.6623 428.009 74.1529 426.631 73.8533C425.312 73.5537 423.455 73.254 421.058 72.9544C417.522 72.5949 414.586 72.1454 412.249 71.6061C409.972 71.0068 407.994 69.8683 406.316 68.1904C404.698 66.5125 403.889 64.0855 403.889 60.9095C403.889 58.3327 404.578 56.0256 405.957 53.9881C407.395 51.8907 409.522 50.2128 412.339 48.9544C415.155 47.696 418.571 47.0668 422.586 47.0668C426.601 47.0668 429.987 47.696 432.743 48.9544C435.56 50.2128 437.687 51.8907 439.125 53.9881C440.563 56.0256 441.282 58.3327 441.282 60.9095V61.6286H431.305V60.9095C431.305 59.3514 430.496 58.1529 428.878 57.314C427.32 56.4151 425.282 55.9656 422.766 55.9656C420.488 55.9656 418.541 56.3851 416.923 57.2241C415.305 58.063 414.496 59.2615 414.496 60.8196C414.496 61.7185 414.885 62.4376 415.664 62.9769C416.443 63.5162 417.462 63.9057 418.721 64.1454C420.039 64.3851 421.597 64.6248 423.395 64.8645C427.17 65.284 430.286 65.8233 432.743 66.4825C435.26 67.0818 437.447 68.3102 439.305 70.1679Z" fill="#D8FFF2"/>
<path d="M399.541 70.1679C401.399 72.0256 402.328 74.6623 402.328 78.078C402.328 80.8346 401.578 83.3514 400.08 85.6286C398.642 87.9057 396.455 89.7334 393.519 91.1117C390.582 92.4301 387.017 93.0892 382.822 93.0892C378.687 93.0892 375.151 92.4301 372.215 91.1117C369.279 89.7334 367.062 87.9057 365.563 85.6286C364.065 83.3514 363.316 80.8645 363.316 78.1679H373.204C373.264 80.1454 374.133 81.6435 375.811 82.6623C377.549 83.681 379.916 84.1904 382.912 84.1904C384.41 84.1904 385.818 84.0106 387.137 83.651C388.455 83.2316 389.534 82.6024 390.372 81.7634C391.211 80.8645 391.631 79.7559 391.631 78.4376C391.631 77.1192 391.181 76.1005 390.283 75.3814C389.384 74.6623 388.245 74.1529 386.867 73.8533C385.548 73.5537 383.691 73.254 381.294 72.9544C377.758 72.5949 374.822 72.1454 372.485 71.6061C370.208 71.0068 368.23 69.8683 366.552 68.1904C364.934 66.5125 364.125 64.0855 364.125 60.9095C364.125 58.3327 364.814 56.0256 366.193 53.9881C367.631 51.8907 369.758 50.2128 372.575 48.9544C375.391 47.696 378.807 47.0668 382.822 47.0668C386.837 47.0668 390.223 47.696 392.979 48.9544C395.796 50.2128 397.923 51.8907 399.361 53.9881C400.799 56.0256 401.519 58.3327 401.519 60.9095V61.6286H391.541V60.9095C391.541 59.3514 390.732 58.1529 389.114 57.314C387.556 56.4151 385.519 55.9656 383.002 55.9656C380.725 55.9656 378.777 56.3851 377.159 57.2241C375.541 58.063 374.732 59.2615 374.732 60.8196C374.732 61.7185 375.122 62.4376 375.901 62.9769C376.68 63.5162 377.698 63.9057 378.957 64.1454C380.275 64.3851 381.833 64.6248 383.631 64.8645C387.406 65.284 390.522 65.8233 392.979 66.4825C395.496 67.0818 397.683 68.3102 399.541 70.1679Z" fill="#D8FFF2"/>
<path d="M340.149 55.9656C337.872 55.9656 335.924 56.475 334.307 57.4937C332.748 58.4525 331.49 59.711 330.531 61.269C329.632 62.7671 329.033 64.3552 328.733 66.0331L351.565 66.1229C351.325 64.505 350.756 62.9469 349.857 61.4488C348.958 59.8907 347.7 58.6024 346.082 57.5836C344.464 56.505 342.486 55.9656 340.149 55.9656ZM328.464 72.505C328.644 74.2428 329.123 76.0106 329.902 77.8083C330.681 79.5462 331.91 81.0443 333.587 82.3027C335.325 83.5612 337.513 84.1904 340.149 84.1904C342.906 84.1904 345.123 83.5612 346.801 82.3027C348.479 81.0443 349.737 79.3664 350.576 77.269H361.183C360.164 81.284 358.037 84.9394 354.801 88.2353C351.565 91.4713 346.711 93.0892 340.239 93.0892C335.265 93.0892 331.13 91.9806 327.835 89.7634C324.539 87.4862 322.112 84.6098 320.554 81.1342C319.056 77.5986 318.307 73.9132 318.307 70.078C318.307 66.2428 319.056 62.5874 320.554 59.1117C322.112 55.5761 324.539 52.6997 327.835 50.4825C331.13 48.2053 335.265 47.0668 340.239 47.0668C345.273 47.0668 349.468 48.2353 352.823 50.5724C356.179 52.8495 358.606 55.9357 360.104 59.8308C361.662 63.666 362.292 67.8907 361.992 72.505H328.464Z" fill="#D8FFF2"/>
<path d="M314.046 29.0894V92.0107H303.17V29.0894H314.046Z" fill="#D8FFF2"/>
<path d="M277.036 55.9656C274.759 55.9656 272.812 56.475 271.194 57.4937C269.636 58.4525 268.377 59.711 267.418 61.269C266.519 62.7671 265.92 64.3552 265.621 66.0331L288.452 66.1229C288.212 64.505 287.643 62.9469 286.744 61.4488C285.845 59.8907 284.587 58.6024 282.969 57.5836C281.351 56.505 279.373 55.9656 277.036 55.9656ZM265.351 72.505C265.531 74.2428 266.01 76.0106 266.789 77.8083C267.568 79.5462 268.797 81.0443 270.475 82.3027C272.212 83.5612 274.4 84.1904 277.036 84.1904C279.793 84.1904 282.01 83.5612 283.688 82.3027C285.366 81.0443 286.624 79.3664 287.463 77.269H298.07C297.051 81.284 294.924 84.9394 291.688 88.2353C288.452 91.4713 283.598 93.0892 277.126 93.0892C272.152 93.0892 268.018 91.9806 264.722 89.7634C261.426 87.4862 258.999 84.6098 257.441 81.1342C255.943 77.5986 255.194 73.9132 255.194 70.078C255.194 66.2428 255.943 62.5874 257.441 59.1117C258.999 55.5761 261.426 52.6997 264.722 50.4825C268.018 48.2053 272.152 47.0668 277.126 47.0668C282.16 47.0668 286.355 48.2353 289.71 50.5724C293.066 52.8495 295.493 55.9357 296.991 59.8308C298.549 63.666 299.179 67.8907 298.879 72.505H265.351Z" fill="#D8FFF2"/>
<path d="M227.61 86.7971C223.715 86.7971 220.149 85.9881 216.914 84.3701C213.738 82.6922 211.221 80.3552 209.363 77.3589C207.565 74.3027 206.666 70.857 206.666 67.0218C206.666 63.0668 207.505 59.5911 209.183 56.5949C210.861 53.5387 213.198 51.2016 216.194 49.5836C219.251 47.9057 222.726 47.0668 226.621 47.0668C229.438 47.0668 231.985 47.6361 234.262 48.7746C236.599 49.9132 238.457 51.4113 239.835 53.269C241.273 55.1267 242.172 57.1042 242.532 59.2016C242.651 59.681 242.921 60.1304 243.341 60.5499C243.76 60.9694 244.389 61.5087 245.228 62.1679C246.367 63.1267 247.176 63.9656 247.655 64.6847C248.194 65.3439 248.464 66.123 248.464 67.0218C248.464 70.917 247.595 74.3626 245.857 77.3589C244.179 80.3552 241.752 82.6922 238.576 84.3701C235.4 85.9881 231.745 86.7971 227.61 86.7971ZM227.61 77.8982C229.887 77.8982 231.925 77.4488 233.723 76.5499C235.58 75.5911 237.018 74.3027 238.037 72.6847C239.056 71.0068 239.565 69.1192 239.565 67.0218C239.565 64.8645 239.056 62.9769 238.037 61.3589C237.018 59.681 235.58 58.3926 233.723 57.4937C231.925 56.5349 229.887 56.0555 227.61 56.0555C225.273 56.0555 223.206 56.5349 221.408 57.4937C219.61 58.3926 218.202 59.681 217.183 61.3589C216.164 62.9769 215.655 64.8645 215.655 67.0218C215.655 69.1192 216.164 71.0068 217.183 72.6847C218.202 74.3027 219.61 75.5911 221.408 76.5499C223.206 77.4488 225.273 77.8982 227.61 77.8982ZM228.509 110.168C231.266 110.168 233.723 109.928 235.88 109.449C238.037 108.969 239.745 108.28 241.003 107.381C242.262 106.542 242.891 105.554 242.891 104.415C242.891 103.277 242.262 102.258 241.003 101.359C239.745 100.52 238.007 99.8608 235.79 99.3814C233.573 98.902 231.146 98.6623 228.509 98.6623C225.752 98.6623 223.296 98.902 221.138 99.3814C218.981 99.8608 217.273 100.52 216.015 101.359C214.816 102.258 214.217 103.277 214.217 104.415C214.217 105.554 214.816 106.542 216.015 107.381C217.273 108.28 218.981 108.969 221.138 109.449C223.296 109.928 225.752 110.168 228.509 110.168ZM213.138 94.7072C211.101 94.7072 209.513 94.1979 208.374 93.1791C207.236 92.1604 206.666 90.7821 206.666 89.0443C206.666 87.4263 207.236 86.1379 208.374 85.1791C209.513 84.2203 211.101 83.7409 213.138 83.7409H213.947V82.123L227.61 84.9994V86.7971H217.633C216.794 86.7971 216.105 86.9469 215.565 87.2465C215.086 87.5462 214.846 88.0555 214.846 88.7746C214.846 89.4338 215.086 89.9432 215.565 90.3027C216.105 90.6024 216.794 90.7522 217.633 90.7522H228.509C233.123 90.7522 237.258 91.3514 240.914 92.5499C244.629 93.7484 247.535 95.3664 249.633 97.4039C251.73 99.5012 252.779 101.838 252.779 104.415C252.779 106.992 251.73 109.329 249.633 111.426C247.535 113.524 244.629 115.142 240.914 116.28C237.258 117.479 233.153 118.078 228.599 118.078C223.925 118.078 219.73 117.539 216.015 116.46C212.359 115.441 209.483 114.003 207.385 112.145C205.288 110.348 204.239 108.28 204.239 105.943C204.239 103.906 204.839 102.168 206.037 100.73C207.296 99.3514 208.794 98.3027 210.532 97.5836C212.269 96.8645 214.037 96.3851 215.835 96.1454H215.925V94.7072H213.138ZM243.97 59.2016C243.011 56.3851 242.532 53.8683 242.532 51.651C242.532 50.6922 242.861 49.8832 243.52 49.2241C244.239 48.505 245.108 48.1454 246.127 48.1454H255.296V58.0331H250.352C249.872 58.0331 249.423 58.2128 249.003 58.5724C248.644 58.872 248.464 59.2915 248.464 59.8308V67.0218L241.543 65.6735L242.532 59.2016H243.97Z" fill="#D8FFF2"/>
<path d="M167.23 70.0781C167.23 74.0332 168.339 77.2092 170.556 79.6062C172.833 82.0032 175.74 83.2017 179.275 83.2017C182.811 83.2017 185.687 82.0032 187.904 79.6062C190.181 77.2092 191.32 74.0332 191.32 70.0781C191.32 66.1231 190.181 62.947 187.904 60.55C185.687 58.153 182.811 56.9545 179.275 56.9545C175.74 56.9545 172.833 58.153 170.556 60.55C168.339 62.947 167.23 66.1231 167.23 70.0781ZM156.354 70.0781C156.354 66.183 157.043 62.4976 158.421 59.0219C159.859 55.4864 162.047 52.61 164.983 50.3927C167.919 48.1755 171.605 47.0669 176.039 47.0669C180.054 47.0669 183.23 47.9358 185.567 49.6736C187.964 51.3515 189.882 53.5088 191.32 56.1455H192.848C191.829 52.8497 191.32 49.3141 191.32 45.5388V29.0894H202.107V92.0107H191.32V91.4714C191.32 90.2729 191.47 89.0145 191.769 87.6961C192.069 86.3777 192.429 85.1493 192.848 84.0107H191.32C191.14 84.2504 190.931 84.58 190.691 84.9995C189.372 87.3965 187.515 89.344 185.118 90.8422C182.721 92.3403 179.575 93.0894 175.68 93.0894C171.425 93.0894 167.829 91.9807 164.893 89.7635C162.017 87.5463 159.859 84.6998 158.421 81.2242C157.043 77.6886 156.354 73.9733 156.354 70.0781Z" fill="#D8FFF2"/>
<path d="M152.64 38.977H123.606V55.2467H149.674V64.7748H123.606V82.1231H152.64V92.0107H112.82V29.0894H152.64V38.977Z" fill="#D8FFF2"/>
<path fill-rule="evenodd" clip-rule="evenodd" d="M0.214642 1.57046C-0.125195 1.88515 -0.0361765 85.7138 0.304262 85.8205C0.467564 85.8715 2.90416 85.8762 5.7185 85.8308L10.8359 85.7487L10.7598 43.6394L10.6837 1.53036L5.55279 1.45433C2.73094 1.41255 0.328924 1.46491 0.214642 1.57046ZM24.0796 4.39213C20.5871 4.44616 19.0594 4.56926 18.8888 4.80987C18.6034 5.21257 18.6236 32.8651 18.9093 32.8509C19.0166 32.8453 19.7333 31.8742 20.5017 30.6926C21.9841 28.4137 24.3079 25.6199 24.7214 25.6199C24.8576 25.6199 24.9689 35.0816 24.9689 46.646C24.9689 59.3485 24.8588 67.6721 24.6907 67.6721C24.3235 67.6721 21.0451 63.6317 19.9589 61.8404C19.4888 61.0657 19.0308 60.4318 18.9409 60.4316C18.8509 60.4313 18.7833 66.7912 18.7905 74.5647L18.8037 88.6982L24.1049 88.7742C28.973 88.8438 29.416 88.8096 29.5251 88.3564C29.7865 87.2712 29.5702 4.70739 29.3056 4.51578C29.1534 4.4055 26.8016 4.3498 24.0796 4.39213ZM37.8072 7.41878C37.5705 7.63795 37.5185 17.5436 37.7543 17.5436C37.8391 17.5436 38.8851 17.293 40.079 16.9866C42.6885 16.3169 43.6139 16.2807 43.6175 16.8474C43.619 17.0771 43.6223 30.643 43.6248 46.9941C43.6287 72.3307 43.5667 76.7353 43.2058 76.8068C42.973 76.8528 41.6955 76.6336 40.3668 76.3195C39.0382 76.0054 37.8698 75.7483 37.7708 75.7483C37.6719 75.7483 37.6268 79.3514 37.6707 83.7549L37.7504 91.7616H43.0133H48.2763V49.5701V7.37868L43.1454 7.30265C40.3235 7.26087 37.9215 7.31323 37.8072 7.41878ZM56.3115 13.5503L56.3963 16.7978L58.8022 17.547C61.5035 18.3883 63.8965 19.4529 65.7945 20.658L67.0726 21.4692V46.6404V71.8116L66.2456 72.3543C64.8429 73.2747 61.0773 74.9582 58.6798 75.7369L56.3963 76.4782V85.5122V94.5465H61.6593H66.9222L67.0007 83.228L67.0792 71.9093L69.1059 70.3163C71.5888 68.3647 74.3307 65.5533 75.7372 63.5175C77.351 61.1815 79.2902 57.1955 80.0162 54.7222C80.8537 51.8693 81.1891 44.1345 80.6068 41.1017C79.3543 34.5781 75.044 27.5398 69.8355 23.5134C68.7294 22.6581 67.6572 21.6859 67.453 21.3525C67.195 20.9317 67.0801 19.1491 67.0771 15.5245L67.0726 10.3028H61.6496H56.227L56.3115 13.5503Z" fill="#A0EB67"/>
</svg>
