<svg width="450" height="125" viewBox="0 0 450 125" fill="none" xmlns="http://www.w3.org/2000/svg">
<path d="M439.305 70.1683C441.163 72.0259 442.091 74.6626 442.091 78.0784C442.091 80.8349 441.342 83.3518 439.844 85.6289C438.406 87.9061 436.219 89.7338 433.282 91.1121C430.346 92.4304 426.781 93.0896 422.586 93.0896C418.451 93.0896 414.915 92.4304 411.979 91.1121C409.043 89.7338 406.826 87.9061 405.327 85.6289C403.829 83.3518 403.08 80.8649 403.08 78.1683H412.968C413.028 80.1458 413.897 81.6439 415.575 82.6626C417.312 83.6814 419.679 84.1907 422.676 84.1907C424.174 84.1907 425.582 84.011 426.9 83.6514C428.219 83.2319 429.297 82.6027 430.136 81.7638C430.975 80.8649 431.395 79.7563 431.395 78.4379C431.395 77.1196 430.945 76.1008 430.047 75.3817C429.148 74.6626 428.009 74.1533 426.631 73.8537C425.312 73.554 423.455 73.2544 421.058 72.9548C417.522 72.5952 414.586 72.1458 412.249 71.6065C409.972 71.0072 407.994 69.8686 406.316 68.1907C404.698 66.5128 403.889 64.0859 403.889 60.9098C403.889 58.3331 404.578 56.0259 405.957 53.9885C407.395 51.8911 409.522 50.2132 412.339 48.9548C415.155 47.6964 418.571 47.0671 422.586 47.0671C426.601 47.0671 429.987 47.6964 432.743 48.9548C435.56 50.2132 437.687 51.8911 439.125 53.9885C440.563 56.0259 441.282 58.3331 441.282 60.9098V61.6289H431.305V60.9098C431.305 59.3518 430.496 58.1533 428.878 57.3143C427.32 56.4155 425.282 55.966 422.766 55.966C420.488 55.966 418.541 56.3855 416.923 57.2244C415.305 58.0634 414.496 59.2619 414.496 60.8199C414.496 61.7188 414.885 62.4379 415.664 62.9773C416.443 63.5166 417.462 63.9061 418.721 64.1458C420.039 64.3855 421.597 64.6252 423.395 64.8649C427.17 65.2844 430.286 65.8237 432.743 66.4829C435.26 67.0821 437.447 68.3106 439.305 70.1683Z" fill="#A0EB67"/>
<path d="M399.541 70.1683C401.399 72.0259 402.328 74.6626 402.328 78.0784C402.328 80.8349 401.578 83.3518 400.08 85.6289C398.642 87.9061 396.455 89.7338 393.519 91.1121C390.582 92.4304 387.017 93.0896 382.822 93.0896C378.687 93.0896 375.151 92.4304 372.215 91.1121C369.279 89.7338 367.062 87.9061 365.563 85.6289C364.065 83.3518 363.316 80.8649 363.316 78.1683H373.204C373.264 80.1458 374.133 81.6439 375.811 82.6626C377.549 83.6814 379.916 84.1907 382.912 84.1907C384.41 84.1907 385.818 84.011 387.137 83.6514C388.455 83.2319 389.534 82.6027 390.372 81.7638C391.211 80.8649 391.631 79.7563 391.631 78.4379C391.631 77.1196 391.181 76.1008 390.283 75.3817C389.384 74.6626 388.245 74.1533 386.867 73.8537C385.548 73.554 383.691 73.2544 381.294 72.9548C377.758 72.5952 374.822 72.1458 372.485 71.6065C370.208 71.0072 368.23 69.8686 366.552 68.1907C364.934 66.5128 364.125 64.0859 364.125 60.9098C364.125 58.3331 364.814 56.0259 366.193 53.9885C367.631 51.8911 369.758 50.2132 372.575 48.9548C375.391 47.6964 378.807 47.0671 382.822 47.0671C386.837 47.0671 390.223 47.6964 392.979 48.9548C395.796 50.2132 397.923 51.8911 399.361 53.9885C400.799 56.0259 401.519 58.3331 401.519 60.9098V61.6289H391.541V60.9098C391.541 59.3518 390.732 58.1533 389.114 57.3143C387.556 56.4155 385.519 55.966 383.002 55.966C380.725 55.966 378.777 56.3855 377.159 57.2244C375.541 58.0634 374.732 59.2619 374.732 60.8199C374.732 61.7188 375.122 62.4379 375.901 62.9773C376.68 63.5166 377.698 63.9061 378.957 64.1458C380.275 64.3855 381.833 64.6252 383.631 64.8649C387.406 65.2844 390.522 65.8237 392.979 66.4829C395.496 67.0821 397.683 68.3106 399.541 70.1683Z" fill="#A0EB67"/>
<path d="M340.149 55.966C337.872 55.966 335.924 56.4754 334.307 57.4941C332.748 58.4529 331.49 59.7113 330.531 61.2694C329.632 62.7675 329.033 64.3555 328.733 66.0334L351.565 66.1233C351.325 64.5053 350.756 62.9473 349.857 61.4492C348.958 59.8911 347.7 58.6027 346.082 57.584C344.464 56.5053 342.486 55.966 340.149 55.966ZM328.464 72.5053C328.644 74.2432 329.123 76.011 329.902 77.8087C330.681 79.5465 331.91 81.0447 333.587 82.3031C335.325 83.5615 337.513 84.1907 340.149 84.1907C342.906 84.1907 345.123 83.5615 346.801 82.3031C348.479 81.0447 349.737 79.3668 350.576 77.2694H361.183C360.164 81.2844 358.037 84.9398 354.801 88.2357C351.565 91.4716 346.711 93.0896 340.239 93.0896C335.265 93.0896 331.13 91.981 327.835 89.7638C324.539 87.4866 322.112 84.6102 320.554 81.1346C319.056 77.599 318.307 73.9136 318.307 70.0784C318.307 66.2432 319.056 62.5877 320.554 59.1121C322.112 55.5765 324.539 52.7001 327.835 50.4829C331.13 48.2057 335.265 47.0671 340.239 47.0671C345.273 47.0671 349.468 48.2357 352.823 50.5728C356.179 52.8499 358.606 55.9361 360.104 59.8312C361.662 63.6664 362.292 67.8911 361.992 72.5053H328.464Z" fill="#A0EB67"/>
<path d="M314.046 29.0894V92.0107H303.17V29.0894H314.046Z" fill="#A0EB67"/>
<path d="M277.036 55.966C274.759 55.966 272.812 56.4754 271.194 57.4941C269.636 58.4529 268.377 59.7113 267.418 61.2694C266.519 62.7675 265.92 64.3555 265.621 66.0334L288.452 66.1233C288.212 64.5053 287.643 62.9473 286.744 61.4492C285.845 59.8911 284.587 58.6027 282.969 57.584C281.351 56.5053 279.373 55.966 277.036 55.966ZM265.351 72.5053C265.531 74.2432 266.01 76.011 266.789 77.8087C267.568 79.5465 268.797 81.0447 270.475 82.3031C272.212 83.5615 274.4 84.1907 277.036 84.1907C279.793 84.1907 282.01 83.5615 283.688 82.3031C285.366 81.0447 286.624 79.3668 287.463 77.2694H298.07C297.051 81.2844 294.924 84.9398 291.688 88.2357C288.452 91.4716 283.598 93.0896 277.126 93.0896C272.152 93.0896 268.018 91.981 264.722 89.7638C261.426 87.4866 258.999 84.6102 257.441 81.1346C255.943 77.599 255.194 73.9136 255.194 70.0784C255.194 66.2432 255.943 62.5877 257.441 59.1121C258.999 55.5765 261.426 52.7001 264.722 50.4829C268.018 48.2057 272.152 47.0671 277.126 47.0671C282.16 47.0671 286.355 48.2357 289.71 50.5728C293.066 52.8499 295.493 55.9361 296.991 59.8312C298.549 63.6664 299.179 67.8911 298.879 72.5053H265.351Z" fill="#A0EB67"/>
<path d="M227.61 86.7975C223.715 86.7975 220.149 85.9885 216.914 84.3705C213.738 82.6926 211.221 80.3555 209.363 77.3593C207.565 74.3031 206.666 70.8574 206.666 67.0222C206.666 63.0671 207.505 59.5915 209.183 56.5952C210.861 53.539 213.198 51.202 216.194 49.584C219.251 47.9061 222.726 47.0671 226.621 47.0671C229.438 47.0671 231.985 47.6364 234.262 48.775C236.599 49.9136 238.457 51.4117 239.835 53.2694C241.273 55.1271 242.172 57.1046 242.532 59.202C242.651 59.6814 242.921 60.1308 243.341 60.5503C243.76 60.9698 244.389 61.5091 245.228 62.1683C246.367 63.1271 247.176 63.966 247.655 64.6851C248.194 65.3443 248.464 66.1233 248.464 67.0222C248.464 70.9173 247.595 74.363 245.857 77.3593C244.179 80.3555 241.752 82.6926 238.576 84.3705C235.4 85.9885 231.745 86.7975 227.61 86.7975ZM227.61 77.8986C229.887 77.8986 231.925 77.4492 233.723 76.5503C235.58 75.5915 237.018 74.3031 238.037 72.6851C239.056 71.0072 239.565 69.1196 239.565 67.0222C239.565 64.8649 239.056 62.9772 238.037 61.3593C237.018 59.6814 235.58 58.393 233.723 57.4941C231.925 56.5353 229.887 56.0559 227.61 56.0559C225.273 56.0559 223.206 56.5353 221.408 57.4941C219.61 58.393 218.202 59.6814 217.183 61.3593C216.164 62.9772 215.655 64.8649 215.655 67.0222C215.655 69.1196 216.164 71.0072 217.183 72.6851C218.202 74.3031 219.61 75.5915 221.408 76.5503C223.206 77.4492 225.273 77.8986 227.61 77.8986ZM228.509 110.168C231.266 110.168 233.723 109.929 235.88 109.449C238.037 108.97 239.745 108.281 241.003 107.382C242.262 106.543 242.891 105.554 242.891 104.415C242.891 103.277 242.262 102.258 241.003 101.359C239.745 100.52 238.007 99.8611 235.79 99.3817C233.573 98.9023 231.146 98.6626 228.509 98.6626C225.752 98.6626 223.296 98.9023 221.138 99.3817C218.981 99.8611 217.273 100.52 216.015 101.359C214.816 102.258 214.217 103.277 214.217 104.415C214.217 105.554 214.816 106.543 216.015 107.382C217.273 108.281 218.981 108.97 221.138 109.449C223.296 109.929 225.752 110.168 228.509 110.168ZM213.138 94.7076C211.101 94.7076 209.513 94.1982 208.374 93.1795C207.236 92.1608 206.666 90.7825 206.666 89.0447C206.666 87.4267 207.236 86.1383 208.374 85.1795C209.513 84.2207 211.101 83.7413 213.138 83.7413H213.947V82.1233L227.61 84.9997V86.7975H217.633C216.794 86.7975 216.105 86.9473 215.565 87.2469C215.086 87.5465 214.846 88.0559 214.846 88.775C214.846 89.4342 215.086 89.9435 215.565 90.3031C216.105 90.6027 216.794 90.7525 217.633 90.7525H228.509C233.123 90.7525 237.258 91.3518 240.914 92.5503C244.629 93.7488 247.535 95.3668 249.633 97.4042C251.73 99.5016 252.779 101.839 252.779 104.415C252.779 106.992 251.73 109.329 249.633 111.427C247.535 113.524 244.629 115.142 240.914 116.281C237.258 117.479 233.153 118.078 228.599 118.078C223.925 118.078 219.73 117.539 216.015 116.46C212.359 115.442 209.483 114.003 207.385 112.146C205.288 110.348 204.239 108.281 204.239 105.944C204.239 103.906 204.839 102.168 206.037 100.73C207.296 99.3518 208.794 98.3031 210.532 97.584C212.269 96.8649 214.037 96.3855 215.835 96.1458H215.925V94.7076H213.138ZM243.97 59.202C243.011 56.3855 242.532 53.8686 242.532 51.6514C242.532 50.6926 242.861 49.8836 243.52 49.2244C244.239 48.5053 245.108 48.1458 246.127 48.1458H255.296V58.0334H250.352C249.872 58.0334 249.423 58.2132 249.003 58.5728C248.644 58.8724 248.464 59.2919 248.464 59.8312V67.0222L241.543 65.6739L242.532 59.202H243.97Z" fill="#A0EB67"/>
<path d="M167.23 70.0781C167.23 74.0332 168.339 77.2092 170.556 79.6062C172.833 82.0032 175.74 83.2017 179.275 83.2017C182.811 83.2017 185.687 82.0032 187.904 79.6062C190.181 77.2092 191.32 74.0332 191.32 70.0781C191.32 66.1231 190.181 62.947 187.904 60.55C185.687 58.153 182.811 56.9545 179.275 56.9545C175.74 56.9545 172.833 58.153 170.556 60.55C168.339 62.947 167.23 66.1231 167.23 70.0781ZM156.354 70.0781C156.354 66.183 157.043 62.4976 158.421 59.0219C159.859 55.4864 162.047 52.61 164.983 50.3927C167.919 48.1755 171.605 47.0669 176.039 47.0669C180.054 47.0669 183.23 47.9358 185.567 49.6736C187.964 51.3515 189.882 53.5088 191.32 56.1455H192.848C191.829 52.8497 191.32 49.3141 191.32 45.5388V29.0894H202.107V92.0107H191.32V91.4714C191.32 90.2729 191.47 89.0145 191.769 87.6961C192.069 86.3777 192.429 85.1493 192.848 84.0107H191.32C191.14 84.2504 190.931 84.58 190.691 84.9995C189.372 87.3965 187.515 89.344 185.118 90.8422C182.721 92.3403 179.575 93.0894 175.68 93.0894C171.425 93.0894 167.829 91.9807 164.893 89.7635C162.017 87.5463 159.859 84.6998 158.421 81.2242C157.043 77.6886 156.354 73.9733 156.354 70.0781Z" fill="#A0EB67"/>
<path d="M152.64 38.977H123.606V55.2467H149.674V64.7748H123.606V82.1231H152.64V92.0107H112.82V29.0894H152.64V38.977Z" fill="#A0EB67"/>
<path fill-rule="evenodd" clip-rule="evenodd" d="M0.214642 1.57095C-0.125195 1.88564 -0.0361765 85.7143 0.304262 85.821C0.467564 85.872 2.90416 85.8767 5.7185 85.8313L10.8359 85.7491L10.7598 43.6398L10.6837 1.53085L5.55279 1.45482C2.73094 1.41304 0.328924 1.4654 0.214642 1.57095ZM24.0796 4.39262C20.5871 4.44665 19.0594 4.56974 18.8888 4.81036C18.6034 5.21306 18.6236 32.8656 18.9093 32.8514C19.0166 32.8458 19.7333 31.8747 20.5017 30.6931C21.9841 28.4142 24.3079 25.6203 24.7214 25.6203C24.8576 25.6203 24.9689 35.0821 24.9689 46.6464C24.9689 59.349 24.8588 67.6725 24.6907 67.6725C24.3235 67.6725 21.0451 63.6322 19.9589 61.8409C19.4888 61.0662 19.0308 60.4323 18.9409 60.432C18.8509 60.4318 18.7833 66.7917 18.7905 74.5652L18.8037 88.6986L24.1049 88.7747C28.973 88.8443 29.416 88.81 29.5251 88.3569C29.7865 87.2717 29.5702 4.70788 29.3056 4.51627C29.1534 4.40599 26.8016 4.35029 24.0796 4.39262ZM37.8072 7.41927C37.5705 7.63844 37.5185 17.5441 37.7543 17.5441C37.8391 17.5441 38.8851 17.2935 40.079 16.9871C42.6885 16.3173 43.6139 16.2811 43.6175 16.8479C43.619 17.0776 43.6223 30.6435 43.6248 46.9946C43.6287 72.3311 43.5667 76.7358 43.2058 76.8073C42.973 76.8533 41.6955 76.6341 40.3668 76.32C39.0382 76.0058 37.8698 75.7488 37.7708 75.7488C37.6719 75.7488 37.6268 79.3519 37.6707 83.7554L37.7504 91.762H43.0133H48.2763V49.5706V7.37916L43.1454 7.30314C40.3235 7.26136 37.9215 7.31372 37.8072 7.41927ZM56.3115 13.5508L56.3963 16.7983L58.8022 17.5474C61.5035 18.3888 63.8965 19.4534 65.7945 20.6585L67.0726 21.4697V46.6409V71.812L66.2456 72.3548C64.8429 73.2752 61.0773 74.9587 58.6798 75.7374L56.3963 76.4787V85.5127V94.547H61.6593H66.9222L67.0007 83.2285L67.0792 71.9098L69.1059 70.3168C71.5888 68.3651 74.3307 65.5538 75.7372 63.518C77.351 61.182 79.2902 57.196 80.0162 54.7227C80.8537 51.8698 81.1891 44.135 80.6068 41.1022C79.3543 34.5786 75.044 27.5403 69.8355 23.5138C68.7294 22.6586 67.6572 21.6864 67.453 21.353C67.195 20.9322 67.0801 19.1496 67.0771 15.525L67.0726 10.3033H61.6496H56.227L56.3115 13.5508Z" fill="#A0EB67"/>
</svg>
